<mxfile host="Electron" modified="2024-06-07T11:37:33.891Z" agent="Mozilla/5.0 (Windows NT 10.0; Win64; x64) AppleWebKit/537.36 (KHTML, like Gecko) draw.io/21.2.8 Chrome/112.0.5615.165 Electron/24.2.0 Safari/537.36" etag="VHxnLAsv4II2Rs8CzBdL" version="21.2.8" type="device">
  <diagram name="第 1 页" id="4vGoqL806USBXNcvkwfP">
    <mxGraphModel dx="1436" dy="968" grid="0" gridSize="10" guides="1" tooltips="1" connect="1" arrows="1" fold="1" page="1" pageScale="1" pageWidth="1169" pageHeight="827" math="0" shadow="0">
      <root>
        <mxCell id="0" />
        <mxCell id="1" parent="0" />
        <mxCell id="HGwuLj2PyPIQf359X7X5-1" value="" style="endArrow=none;html=1;rounded=0;" edge="1" parent="1">
          <mxGeometry width="50" height="50" relative="1" as="geometry">
            <mxPoint x="688" y="821" as="sourcePoint" />
            <mxPoint x="678" y="1" as="targetPoint" />
          </mxGeometry>
        </mxCell>
        <mxCell id="HGwuLj2PyPIQf359X7X5-3" value="&lt;font style=&quot;font-size: 20px;&quot;&gt;&lt;b&gt;登录&lt;/b&gt;&lt;/font&gt;" style="rounded=1;whiteSpace=wrap;html=1;" vertex="1" parent="1">
          <mxGeometry x="716" y="368" width="203" height="58" as="geometry" />
        </mxCell>
        <mxCell id="HGwuLj2PyPIQf359X7X5-4" value="&lt;font style=&quot;font-size: 20px;&quot;&gt;&lt;b&gt;注册&lt;/b&gt;&lt;/font&gt;" style="rounded=1;whiteSpace=wrap;html=1;" vertex="1" parent="1">
          <mxGeometry x="949" y="369" width="194" height="57" as="geometry" />
        </mxCell>
        <mxCell id="HGwuLj2PyPIQf359X7X5-6" value="&lt;b&gt;&lt;font style=&quot;font-size: 18px;&quot;&gt;USTC 银行管理系统&lt;/font&gt;&lt;/b&gt;" style="text;html=1;strokeColor=none;fillColor=none;align=center;verticalAlign=middle;whiteSpace=wrap;rounded=0;" vertex="1" parent="1">
          <mxGeometry x="14" y="29" width="231" height="30" as="geometry" />
        </mxCell>
        <mxCell id="HGwuLj2PyPIQf359X7X5-7" value="&lt;b&gt;&lt;font style=&quot;font-size: 32px;&quot;&gt;快速开始！&lt;/font&gt;&lt;/b&gt;" style="text;html=1;strokeColor=none;fillColor=none;align=center;verticalAlign=middle;whiteSpace=wrap;rounded=0;" vertex="1" parent="1">
          <mxGeometry x="841" y="287" width="200" height="55" as="geometry" />
        </mxCell>
        <mxCell id="HGwuLj2PyPIQf359X7X5-8" value="&lt;b&gt;&lt;font style=&quot;font-size: 14px;&quot;&gt;Logo&lt;/font&gt;&lt;/b&gt;" style="ellipse;whiteSpace=wrap;html=1;aspect=fixed;" vertex="1" parent="1">
          <mxGeometry x="811" y="651" width="51" height="51" as="geometry" />
        </mxCell>
        <mxCell id="HGwuLj2PyPIQf359X7X5-9" value="&lt;b&gt;&lt;font style=&quot;font-size: 26px;&quot;&gt;Melmaphother&lt;/font&gt;&lt;/b&gt;" style="text;html=1;strokeColor=none;fillColor=none;align=center;verticalAlign=middle;whiteSpace=wrap;rounded=0;" vertex="1" parent="1">
          <mxGeometry x="881" y="646" width="171" height="61" as="geometry" />
        </mxCell>
        <mxCell id="HGwuLj2PyPIQf359X7X5-10" value="&lt;b&gt;&lt;font style=&quot;font-size: 15px;&quot;&gt;使用条款&lt;/font&gt;&lt;/b&gt;" style="text;html=1;strokeColor=none;fillColor=none;align=center;verticalAlign=middle;whiteSpace=wrap;rounded=0;" vertex="1" parent="1">
          <mxGeometry x="860" y="750" width="79" height="30" as="geometry" />
        </mxCell>
        <mxCell id="HGwuLj2PyPIQf359X7X5-11" value="" style="endArrow=none;html=1;rounded=0;" edge="1" parent="1">
          <mxGeometry width="50" height="50" relative="1" as="geometry">
            <mxPoint x="948" y="775" as="sourcePoint" />
            <mxPoint x="948" y="752" as="targetPoint" />
          </mxGeometry>
        </mxCell>
        <mxCell id="HGwuLj2PyPIQf359X7X5-12" value="&lt;b&gt;&lt;font style=&quot;font-size: 15px;&quot;&gt;隐私政策&lt;/font&gt;&lt;/b&gt;" style="text;html=1;strokeColor=none;fillColor=none;align=center;verticalAlign=middle;whiteSpace=wrap;rounded=0;" vertex="1" parent="1">
          <mxGeometry x="968" y="750" width="69" height="30" as="geometry" />
        </mxCell>
        <mxCell id="HGwuLj2PyPIQf359X7X5-13" value="&lt;b&gt;&lt;font style=&quot;font-size: 24px;&quot;&gt;让这里&lt;/font&gt;&lt;/b&gt;" style="text;html=1;strokeColor=none;fillColor=none;align=center;verticalAlign=middle;whiteSpace=wrap;rounded=0;" vertex="1" parent="1">
          <mxGeometry x="41" y="309" width="95" height="30" as="geometry" />
        </mxCell>
        <mxCell id="HGwuLj2PyPIQf359X7X5-14" value="&lt;font style=&quot;font-size: 17px;&quot;&gt;&lt;b&gt;作为您远航的起点&lt;/b&gt;&lt;/font&gt;" style="text;html=1;strokeColor=none;fillColor=none;align=center;verticalAlign=middle;whiteSpace=wrap;rounded=0;" vertex="1" parent="1">
          <mxGeometry x="49" y="355" width="144" height="30" as="geometry" />
        </mxCell>
        <mxCell id="HGwuLj2PyPIQf359X7X5-15" value="&lt;font style=&quot;font-size: 17px;&quot;&gt;&lt;b&gt;也成为您扬帆的护佑&lt;/b&gt;&lt;/font&gt;" style="text;html=1;strokeColor=none;fillColor=none;align=center;verticalAlign=middle;whiteSpace=wrap;rounded=0;" vertex="1" parent="1">
          <mxGeometry x="46.5" y="394" width="166" height="30" as="geometry" />
        </mxCell>
        <mxCell id="HGwuLj2PyPIQf359X7X5-16" value="&lt;b&gt;&lt;font style=&quot;font-size: 15px;&quot;&gt;淡黄色&lt;/font&gt;&lt;/b&gt;" style="text;html=1;strokeColor=none;fillColor=none;align=center;verticalAlign=middle;whiteSpace=wrap;rounded=0;" vertex="1" parent="1">
          <mxGeometry x="413" y="204" width="60" height="30" as="geometry" />
        </mxCell>
        <mxCell id="HGwuLj2PyPIQf359X7X5-17" value="&lt;b&gt;&lt;font style=&quot;font-size: 16px;&quot;&gt;白色&lt;/font&gt;&lt;/b&gt;" style="text;html=1;strokeColor=none;fillColor=none;align=center;verticalAlign=middle;whiteSpace=wrap;rounded=0;" vertex="1" parent="1">
          <mxGeometry x="746" y="207" width="60" height="30" as="geometry" />
        </mxCell>
      </root>
    </mxGraphModel>
  </diagram>
</mxfile>
